<svg width="800" height="800" viewBox="0 0 800 800" fill="none" xmlns="http://www.w3.org/2000/svg">
<g clip-path="url(#clip0_458_2)">
<path d="M135.797 775H135.789C132.438 775.001 129.509 773.467 127.643 770.789C125.223 767.314 123.175 762.101 123.175 754.557V67.9101C123.175 46.0922 143.959 25 169.172 25H633.341C657.372 25 676.821 44.9412 676.821 67.9101V754.561C676.821 765.548 673.783 770.449 672.112 772.299C670.472 774.115 668.403 775.004 665.851 775.004C662.944 775.004 657.797 773.777 649.969 767.094L649.958 767.085L649.947 767.076L442.997 590.818C442.996 590.817 442.995 590.816 442.995 590.816C431.417 580.93 416.219 576.197 401.56 576.197C386.938 576.197 371.729 580.906 360.159 590.769C360.145 590.781 360.131 590.792 360.117 590.804L152.504 767.078L152.476 767.102L152.447 767.126C145.083 773.416 139.142 775 135.797 775Z" fill="white" stroke="black" stroke-width="50"/>
</g>
<defs>
<clipPath id="clip0_458_2">
<rect width="800" height="800" fill="white"/>
</clipPath>
</defs>
</svg>
